<?xml version="1.0" encoding="utf-8"?>
<!-- Generator: Adobe Illustrator 27.5.0, SVG Export Plug-In . SVG Version: 6.00 Build 0)  -->
<svg version="1.1" xmlns="http://www.w3.org/2000/svg" xmlns:xlink="http://www.w3.org/1999/xlink" x="0px" y="0px"
	 viewBox="0 0 1080 1080" style="enable-background:new 0 0 1080 1080;" xml:space="preserve">
<g id="BACKGROUND">
	<path style="fill:#010028;" d="M-5.058-9.916H1084.31c2.433,0,4.406,2.003,4.406,4.473v1090.699c0,2.47-1.973,4.473-4.406,4.473
		H-5.058c-2.434,0-4.407-2.003-4.407-4.473V-5.443C-9.465-7.913-7.492-9.916-5.058-9.916z"/>
</g>
<g id="OBJECTS">
	<g>
		<defs>
			<path id="SVGID_1_" d="M-5.058-9.916H1084.31c2.433,0,4.406,2.003,4.406,4.473v1090.699c0,2.47-1.973,4.473-4.406,4.473H-5.058
				c-2.434,0-4.407-2.003-4.407-4.473V-5.443C-9.465-7.913-7.492-9.916-5.058-9.916z"/>
		</defs>
		<clipPath id="SVGID_00000149347350171063605670000000601419236942076077_">
			<use xlink:href="#SVGID_1_"  style="overflow:visible;"/>
		</clipPath>
		<g style="clip-path:url(#SVGID_00000149347350171063605670000000601419236942076077_);">
			<circle style="fill:#010028;stroke:#71FFC8;stroke-width:19.2478;stroke-miterlimit:10;" cx="540" cy="540" r="435"/>
			<g>
				<path style="fill:#71FFC8;" d="M929.819,930.322l-6.398-12.939c-1.596-3.226-3.287-6.474-5.043-9.692
					c0.55-8.695-4.337-17.058-12.558-20.744c-21.358-31.993-49.58-59.608-81.797-80.008c-22.406-14.186-44.219-22.651-64.913-25.2
					c-0.733-0.964-1.463-1.912-2.187-2.837c-9.912-12.682-21.086-24.596-33.213-35.414l-0.857-0.764
					c-1.319-1.166-2.648-2.319-4.022-3.489l-0.804-0.678c-5.854-4.939-11.99-9.684-18.225-14.094l-1.008-0.714
					c-1.364-0.958-2.739-1.896-4.146-2.844l-1.374-0.92c-1.358-0.902-2.721-1.794-4.186-2.731l-1.203-0.755
					c-4.538-2.864-9.22-5.623-13.87-8.178c0,0-1.103-0.615-1.414-0.783c-1.308-0.709-2.627-1.398-3.919-2.071
					c-0.718-0.376-1.436-0.749-2.164-1.12c-1.259-0.641-2.523-1.272-3.794-1.896c-0.753-0.368-1.508-0.73-2.291-1.104l-0.061-0.029
					c-1.255-0.601-2.511-1.197-3.794-1.787c-0.519-0.238-1.039-0.47-1.561-0.702l-0.842-0.374c-2.36-1.053-4.736-2.074-7.034-3.022
					l-0.918-0.383c-0.545-0.227-1.089-0.454-1.626-0.669c-0.902-0.362-1.811-0.711-2.707-1.055l-0.886-0.34
					c-0.977-0.377-1.956-0.753-2.951-1.123c-1.126-0.417-2.259-0.822-3.384-1.223c-1.087-0.386-2.178-0.768-3.286-1.146
					c-1.1-0.375-2.199-0.745-3.29-1.101c-1.193-0.391-2.394-0.765-3.584-1.135l-0.695-0.218c-0.799-0.249-1.599-0.498-2.402-0.738
					c-1.346-0.4-2.696-0.788-4.059-1.168v-20.29c0.789-1.592,1.362-3.287,1.713-5.07c0.866-4.409,0.257-8.877-1.713-12.831v-12.196
					c1.186-3.866,1.186-8.014,0-11.873v-22.023c14.521-10.207,26.636-23.678,35.232-39.232
					c8.619-15.596,13.551-33.018,14.388-50.702h20.785c14.447,0,26.202-11.754,26.202-26.202v-83.661
					c0-10.434-6.129-19.462-14.976-23.673l28.392-40.117c2.519,0.431,5.079,0.648,7.662,0.648c24.901,0,45.16-20.259,45.16-45.159
					c0-24.901-20.259-45.16-45.16-45.16c-24.901,0-45.159,20.259-45.159,45.16c0,5.157,0.901,10.311,2.633,15.174l-10.511,14.85
					c-5.507-7.232-12.667-13.13-20.931-17.146c-6.49-21.65-19.348-41.459-36.556-56.185c-20.396-17.455-46.39-27.531-73.136-28.371
					l-0.209-0.007c-1.218-0.037-2.439-0.061-3.666-0.061c-1.222,0-2.543,0.024-4.073,0.076l-0.995,0.038
					c-1.288,0.055-2.572,0.123-3.785,0.214l-0.218,0.015c-1.22,0.093-2.524,0.216-4.026,0.382l-0.93,0.106
					c-1.277,0.151-2.549,0.316-3.764,0.5l-0.288,0.043c-1.276,0.195-2.543,0.417-3.854,0.662l-0.862,0.165
					c-1.244,0.242-2.483,0.499-3.681,0.773l-0.186,0.042c-1.191,0.274-2.448,0.588-3.882,0.969l-0.797,0.216
					c-1.215,0.333-2.425,0.679-3.634,1.052l-0.218,0.067c-1.241,0.386-2.472,0.796-3.747,1.239l-0.68,0.239
					c-2.494,0.885-4.978,1.861-7.419,2.918l-0.571,0.25c-2.434,1.069-4.858,2.233-7.236,3.476l-0.451,0.238
					c-2.377,1.256-4.741,2.61-7.05,4.04l-0.304,0.189c-2.317,1.445-4.591,2.975-6.76,4.547l-0.235,0.171
					c-2.235,1.626-4.428,3.342-6.537,5.114l-0.094,0.08c-17.224,14.501-30.194,34.06-36.896,55.501
					c-13.244,5.545-23.717,15.603-29.806,28.129l-25.923-36.628c1.731-4.863,2.632-10.016,2.632-15.173
					c0-24.901-20.259-45.16-45.159-45.16c-24.901,0-45.16,20.259-45.16,45.16c0,24.901,20.259,45.159,45.16,45.159
					c2.584,0,5.143-0.217,7.661-0.648l42.647,60.256c-2.695,4.183-4.189,9.103-4.189,14.185v83.663
					c0,14.447,11.754,26.201,26.201,26.201h25.834c1.21,35.462,18.611,68.409,47.297,89.655v23.734
					c-1.189,3.863-1.19,8.017,0,11.889v47.931c-1.288,0.311-2.572,0.636-3.842,0.963l-0.575,0.148
					c-0.775,0.198-1.55,0.398-2.344,0.611c-1.438,0.389-2.866,0.796-4.269,1.2l-0.833,0.235c-0.56,0.159-1.121,0.317-1.674,0.482
					c-2.055,0.612-4.191,1.278-6.349,1.98c-0.694,0.226-1.383,0.461-2.055,0.691l-1.119,0.381c-1.135,0.384-2.269,0.769-3.392,1.166
					c-0.966,0.343-1.927,0.695-2.878,1.047l-0.334,0.123c-1.094,0.404-2.185,0.811-3.271,1.227
					c-1.101,0.422-2.197,0.852-3.301,1.291c-1.039,0.415-2.073,0.837-3.101,1.265c-1.111,0.459-2.222,0.919-3.327,1.394
					c-0.802,0.344-1.6,0.698-2.382,1.046l-1.363,0.604c-0.864,0.382-1.727,0.764-2.572,1.153c-0.364,0.167-0.726,0.34-1.067,0.504
					l-0.462,0.221c-2.52,1.179-5.133,2.454-7.757,3.788l-0.605,0.305c-0.6,0.304-1.201,0.608-1.804,0.921
					c-1.203,0.626-2.396,1.27-3.595,1.917c-0.789,0.426-1.578,0.852-2.373,1.291c-1.2,0.664-2.391,1.337-3.587,2.022
					c-0.74,0.424-1.476,0.854-2.221,1.29c-1.214,0.712-2.427,1.428-3.674,2.184c-0.444,0.271-1.859,1.148-1.859,1.148
					c-4.492,2.778-8.955,5.724-13.217,8.721c0,0-0.856,0.594-1.074,0.749c-1.282,0.91-2.549,1.838-3.796,2.758
					c0,0-1.206,0.885-1.623,1.197c-1.22,0.914-2.431,1.838-3.626,2.764c-0.546,0.422-1.089,0.847-1.606,1.255
					c-1.219,0.959-2.434,1.926-3.698,2.955l-1.238,1.023c-14.33,11.824-27.45,25.108-38.994,39.482l-2.391,3.103
					c-2.402,3.079-4.778,6.272-7.094,9.535c-24.147,1.516-49.504,11.578-75.454,29.953c-41.198,29.172-73.55,69.088-93.559,115.431
					l-5.723,13.251l11.118,9.205c14.262,11.809,29.441,22.725,45.226,32.529c-1.774,3.791-3.209,7.736-4.287,11.798
					c-4.582,17.176-2.538,35.249,5.535,50.804c-12.701,11.63-20.814,27.577-22.624,44.917c-1.736,16.757,2.636,33.598,12.111,47.409
					c-10.704,12.568-16.808,28.589-16.994,45.13c-0.198,16.415,5.098,31.923,15.062,44.52c-0.75,1-1.503,2.057-2.276,3.195
					l-0.115,0.172c-1.323,2.005-2.51,4.01-3.528,5.964c-1.163,2.18-2.127,4.222-2.921,6.178c-0.894,2.158-1.677,4.346-2.301,6.421
					c-0.698,2.244-1.276,4.526-1.719,6.784c-0.416,2.014-0.753,4.202-1.037,6.769l-0.023,0.236
					c-0.215,2.284-0.323,4.595-0.323,6.871c0,2.289,0.109,4.601,0.332,6.936l0.021,0.201c0.267,2.444,0.602,4.638,1.025,6.706
					c0.428,2.19,0.999,4.442,1.696,6.696c0.614,2.061,1.368,4.181,2.321,6.518c0.826,2.001,1.81,4.076,2.926,6.169
					c1.023,1.962,2.212,3.974,3.548,5.993l0.121,0.181c1.356,1.997,2.678,3.78,4.058,5.47c1.519,1.851,3.092,3.592,4.681,5.182
					c1.586,1.585,3.312,3.143,5.058,4.572c1.762,1.47,3.7,2.906,5.765,4.271c1.927,1.272,3.896,2.447,5.848,3.491
					c1.983,1.063,4.081,2.05,6.235,2.933c1.915,0.817,3.968,1.559,6.476,2.342l0.172,0.053c2.229,0.669,4.45,1.223,6.603,1.646
					c2.339,0.484,4.693,0.841,7.011,1.063c2.503,0.235,4.751,0.35,6.874,0.35c2.122,0,4.374-0.115,6.899-0.351
					c2.263-0.215,4.533-0.56,6.941-1.053c2.088-0.409,4.237-0.943,6.639-1.652l0.294-0.09c2.454-0.778,4.539-1.534,6.301-2.281
					c2.189-0.907,4.297-1.901,6.265-2.955c1.961-1.049,3.933-2.226,5.863-3.502c2.015-1.331,3.913-2.733,5.64-4.168
					c1.812-1.459,3.563-3.031,5.212-4.679c1.684-1.685,3.276-3.462,4.676-5.21c1.539-1.885,2.94-3.782,4.157-5.628
					c1.263-1.911,2.44-3.88,3.5-5.856c1.063-1.986,2.049-4.073,2.894-6.122c0.847-1.998,1.623-4.137,2.372-6.539l0.086-0.285
					c0.645-2.186,1.19-4.335,1.634-6.458l0.053-0.266c0.48-2.514,0.796-4.683,0.994-6.803c0.236-2.478,0.351-4.726,0.351-6.873
					c0-2.127-0.114-4.377-0.35-6.882c-0.202-2.143-0.54-4.446-1.023-6.939l-0.039-0.19c-0.442-2.113-0.987-4.272-1.647-6.505
					l-0.087-0.282c-0.494-1.557-1.269-3.902-2.309-6.344c-0.882-2.152-1.867-4.248-2.929-6.228
					c-1.052-1.964-2.229-3.934-3.497-5.855c-0.963-1.459-2.037-2.944-3.206-4.438c9.053-11.983,14.056-26.511,14.241-41.737
					c0.18-14.703-4.197-28.954-12.459-40.961c9.32-10.888,15.14-24.348,16.611-38.699c1.435-13.845-1.219-27.704-7.521-39.86
					c9.173-8.4,16.021-19.168,19.757-31.174c15.722,2.601,31.319,3.917,46.482,3.917c1.548,0,3.104-0.014,4.659-0.041
					c0.275,1.05,0.514,2.106,0.719,3.177c1.444,7.572,1.023,16.193,0.577,25.346c-0.27,5.536-0.549,11.261-0.446,17.192
					c0.438,25.094,9.34,45.082,25.067,56.281c8.968,6.387,19.412,9.626,31.039,9.626c2.914,0,5.875-0.21,8.863-0.63
					c0.559,8.741,0.873,17.57,0.936,26.336c-2.58,5.558-2.634,11.917-0.203,17.494c-0.489,15.778-1.797,31.598-3.894,47.06
					l-2.96,21.833h211.248l-8.517-25.373c-2.609-7.771-4.875-15.975-6.748-24.422c0.42-1.797,0.602-3.643,0.545-5.519
					c-0.111-3.725-1.202-7.33-3.133-10.478c0.073-1.834-0.087-3.677-0.482-5.459c-0.296-1.345-0.721-2.654-1.27-3.913
					c-0.961-7.865-1.608-15.946-1.926-24.086c0.723-1.277,1.313-2.627,1.76-4.024c0.734,0.03,1.465,0.045,2.195,0.045
					c7.299,0,14.388-1.491,21.072-4.43c21.012-9.244,34.543-32.376,36.192-61.877c0.398-7.122,0.234-14.011,0.074-20.673
					c-0.257-10.733-0.498-20.871,1.746-29.66c0.799-3.13,1.912-6.188,3.37-9.253c13.648-0.952,27.547-2.97,41.483-6.021
					c4.352,11.797,11.747,22.196,21.342,30.112c-5.665,12.462-7.6,26.436-5.455,40.173c2.213,14.27,8.722,27.417,18.592,37.811
					c-7.629,12.414-11.265,26.874-10.326,41.546c0.972,15.198,6.717,29.449,16.378,40.948c-1.085,1.542-2.081,3.084-2.971,4.595
					c-1.169,1.986-2.242,4.014-3.186,6.021c-0.961,2.038-1.838,4.183-2.608,6.379c-0.7,1.909-1.331,3.968-1.995,6.523l-0.077,0.307
					c-0.523,2.178-0.955,4.365-1.3,6.579l-0.029,0.198c-0.339,2.412-0.558,4.73-0.651,6.896c-0.106,2.507-0.103,4.76,0.007,6.878
					c0.11,2.14,0.34,4.375,0.7,6.812c0.309,2.131,0.738,4.285,1.362,6.833l0.071,0.281c0.533,2.019,1.188,4.137,1.961,6.332
					l0.087,0.243c0.857,2.322,1.756,4.454,2.631,6.248c1.022,2.153,2.129,4.217,3.284,6.125c1.151,1.906,2.428,3.812,3.792,5.663
					c1.323,1.794,2.8,3.593,4.326,5.276c1.589,1.787,3.294,3.505,5.07,5.106c1.722,1.553,3.551,3.03,5.435,4.393
					c1.794,1.341,3.763,2.646,5.859,3.88c1.986,1.168,4.013,2.241,6.027,3.189c2.021,0.951,4.153,1.826,6.262,2.574
					c1.955,0.71,4.041,1.349,6.651,2.028l0.268,0.067c2.365,0.569,4.543,0.992,6.655,1.292c2.387,0.362,4.741,0.595,7.011,0.694
					c1.239,0.052,2.387,0.077,3.511,0.077c1.178,0,2.315-0.028,3.368-0.085c2.13-0.109,4.374-0.34,6.873-0.707
					c2.278-0.337,4.602-0.814,6.908-1.417c2.174-0.545,4.34-1.208,6.706-2.055c2.44-0.9,4.455-1.748,6.331-2.666
					c2.094-0.988,4.135-2.08,6.071-3.248c1.904-1.149,3.813-2.427,5.677-3.801c1.987-1.466,3.848-3,5.46-4.494
					c1.727-1.57,3.372-3.216,4.897-4.906c1.501-1.668,2.983-3.491,4.424-5.443c1.258-1.717,2.518-3.614,3.777-5.696l0.082-0.136
					c1.217-2.066,2.3-4.132,3.218-6.139c1.006-2.145,1.888-4.287,2.638-6.406c0.803-2.304,1.441-4.441,1.949-6.532
					c0.584-2.309,1.041-4.608,1.345-6.75c0.32-2.111,0.542-4.333,0.687-6.865l0.008-0.191c0.1-2.286,0.089-4.601-0.029-6.878
					c-0.117-2.263-0.344-4.565-0.687-6.917l-0.04-0.255c-0.403-2.461-0.852-4.622-1.369-6.607c-0.557-2.227-1.253-4.477-2.04-6.615
					c-0.759-2.116-1.644-4.238-2.599-6.242c-0.945-2.021-2.023-4.035-3.3-6.155c-1.116-1.895-2.404-3.835-3.877-5.833l-0.102-0.136
					c-0.813-1.073-1.61-2.078-2.411-3.038c9.299-13.092,13.787-28.85,12.743-45.223c-1.042-16.521-7.968-32.209-19.305-44.207
					c8.749-14.283,12.245-31.331,9.644-47.989c-2.703-17.212-11.629-32.713-24.912-43.67c7.26-15.951,8.369-34.099,2.912-50.997
					c-1.29-4.012-2.93-7.885-4.899-11.585c15.256-10.606,29.85-22.292,43.483-34.823L929.819,930.322z"/>
				<path style="fill:#5C40FF;" d="M726.857,927.161c0.071-1.697,0.248-3.373,0.479-5.051c0.258-1.654,0.57-3.311,0.988-4.946
					c0.392-1.608,0.89-3.247,1.442-4.837c0.58-1.565,1.214-3.132,1.93-4.651c0.715-1.519,1.51-3.015,2.362-4.46
					c0.851-1.447,1.783-2.871,2.771-4.218c1.014-1.375,2.082-2.7,3.209-3.95c1.126-1.249,2.334-2.449,3.599-3.572
					c1.236-1.149,2.531-2.221,3.907-3.219c1.324-0.995,2.758-1.942,4.194-2.81c1.437-0.869,2.931-1.661,4.428-2.373
					c1.523-0.74,3.077-1.376,4.66-1.96c1.585-0.559,3.199-1.066,4.82-1.466c1.618-0.429,3.292-0.779,4.948-1.023
					c3.334-0.517,6.763-0.695,10.133-0.524c1.67,0.072,3.373,0.248,5.027,0.507c1.651,0.231,3.309,0.569,4.944,0.961
					c1.636,0.418,3.248,0.891,4.838,1.469c1.564,0.554,3.157,1.185,4.648,1.903c1.546,0.713,3.042,1.509,4.489,2.361
					c1.445,0.851,2.844,1.784,4.219,2.798c1.347,0.989,2.672,2.057,3.921,3.183c1.248,1.126,2.449,2.334,3.599,3.597
					c1.122,1.238,2.195,2.558,3.192,3.91c0.996,1.35,1.942,2.756,2.81,4.193c0.868,1.437,1.659,2.931,2.398,4.427
					c0.714,1.524,1.377,3.103,1.935,4.662c0.584,1.583,1.064,3.199,1.493,4.818c0.402,1.646,0.752,3.294,0.998,4.975
					c0.27,1.652,0.439,3.365,0.525,5.027c0.087,1.689,0.096,3.408-0.002,5.08c-0.073,1.67-0.25,3.373-0.48,5.026
					c-0.26,1.654-0.569,3.337-0.987,4.972c-0.394,1.608-0.89,3.247-1.445,4.811c-0.579,1.59-1.212,3.158-1.927,4.677
					c-0.715,1.519-1.51,3.015-2.362,4.462c-0.295,0.5-0.647,0.968-0.96,1.46c18.439,3.045,34.572,16.008,40.68,35.008
					c6.018,18.632,0.863,38.16-11.735,51.379c16.941,6.267,30.046,21.278,33.046,40.384c2.927,18.74-4.637,36.699-18.318,47.884
					c15.523,8.034,26.603,23.785,27.785,42.536c1.176,18.422-7.508,35.147-21.481,45.154c0.02,0.011,0.04,0.021,0.06,0.033
					c1.447,0.879,2.871,1.81,4.219,2.799c1.347,0.988,2.674,2.083,3.923,3.21c1.248,1.126,2.449,2.334,3.598,3.571
					c1.123,1.239,2.196,2.559,3.217,3.908c0.996,1.35,1.942,2.757,2.784,4.195c0.868,1.437,1.686,2.928,2.399,4.453
					c0.713,1.498,1.376,3.077,1.934,4.636c0.585,1.583,1.093,3.223,1.495,4.843c0.427,1.618,0.752,3.294,1.022,4.948
					c0.246,1.679,0.413,3.365,0.501,5.054c0.086,1.662,0.095,3.381,0.022,5.052c-0.097,1.698-0.248,3.373-0.505,5.053
					c-0.232,1.653-0.57,3.31-0.988,4.946c-0.392,1.634-0.89,3.247-1.444,4.837c-0.553,1.563-1.213,3.132-1.928,4.651
					c-0.689,1.516-1.485,3.013-2.336,4.459c-0.877,1.449-1.809,2.873-2.797,4.22c-1.014,1.375-2.084,2.7-3.209,3.95
					c-1.127,1.248-2.334,2.448-3.572,3.571c-1.238,1.149-2.558,2.223-3.908,3.219c-1.352,0.996-2.757,1.942-4.194,2.809
					c-1.437,0.868-2.931,1.659-4.455,2.374c-1.496,0.739-3.077,1.376-4.662,1.96c-1.557,0.557-3.199,1.065-4.818,1.466
					c-1.618,0.427-3.294,0.779-4.948,1.023c-1.681,0.246-3.364,0.439-5.052,0.526c-1.662,0.086-3.384,0.069-5.08-0.002
					c-1.671-0.073-3.347-0.251-5.027-0.507c-1.653-0.233-3.311-0.569-4.944-0.962c-1.609-0.419-3.247-0.89-4.838-1.469
					c-1.564-0.555-3.131-1.188-4.65-1.903c-1.519-0.715-3.014-1.511-4.462-2.362c-1.446-0.851-2.87-1.783-4.218-2.798
					c-1.374-0.987-2.701-2.056-3.949-3.182c-1.25-1.127-2.449-2.334-3.574-3.599c-1.122-1.238-2.221-2.557-3.217-3.908
					c-0.996-1.35-1.942-2.757-2.81-4.193c-0.869-1.437-1.66-2.931-2.372-4.429c-0.74-1.522-1.376-3.077-1.961-4.66
					c-0.558-1.586-1.066-3.199-1.493-4.818c-0.403-1.646-0.753-3.295-0.998-4.975c-0.244-1.655-0.439-3.365-0.525-5.027
					c-0.087-1.689-0.069-3.383,0.002-5.08c0.071-1.672,0.248-3.373,0.48-5.026c0.258-1.654,0.595-3.338,0.987-4.972
					c0.419-1.609,0.89-3.247,1.471-4.812c0.552-1.59,1.185-3.157,1.901-4.676c0.715-1.518,1.51-3.016,2.362-4.461
					c0.852-1.446,1.809-2.871,2.797-4.22c0.99-1.347,2.058-2.672,3.184-3.921c1.125-1.249,2.333-2.476,3.598-3.599
					c1.238-1.122,2.558-2.195,3.907-3.219c0.268-0.197,0.546-0.381,0.818-0.574c-14.104-8.398-23.96-23.379-25.088-41.006
					c-1.104-17.247,6.413-33.061,18.852-43.228c-14.107-7.261-24.684-20.949-27.305-37.852
					c-2.571-16.456,2.958-32.325,13.624-43.513c-14.323-5.292-26.141-16.878-31.184-32.544c-4.916-15.255-2.346-31.122,5.675-43.635
					c-1.332-0.22-2.663-0.487-3.98-0.823c-1.634-0.393-3.247-0.891-4.837-1.444c-1.564-0.554-3.133-1.214-4.651-1.929
					c-1.517-0.689-3.04-1.484-4.46-2.336c-1.473-0.876-2.871-1.808-4.218-2.797c-1.374-0.987-2.701-2.083-3.95-3.209
					c-1.25-1.126-2.449-2.334-3.598-3.571c-1.122-1.239-2.195-2.559-3.192-3.909c-0.996-1.351-1.942-2.757-2.81-4.194
					c-0.869-1.437-1.66-2.93-2.401-4.453c-0.712-1.498-1.376-3.077-1.932-4.636c-0.584-1.583-1.067-3.225-1.495-4.843
					c-0.402-1.62-0.752-3.295-0.996-4.95c-0.271-1.652-0.439-3.363-0.526-5.052C726.768,930.553,726.757,928.833,726.857,927.161z"
					/>
				<path style="fill:#9B8DFF;" d="M728.462,802.109c29.299-6.779,59.856,5.004,85.264,21.092
					c39.407,24.952,71.765,60.906,92.442,102.715c-59.751,54.913-141.896,95.568-223.035,94.182
					C681.338,951.057,690.188,859.599,728.462,802.109z"/>
				<path style="fill:#5C40FF;" d="M352.968,933.819c-0.159-1.691-0.422-3.355-0.739-5.02c-0.344-1.638-0.741-3.277-1.243-4.889
					c-0.475-1.586-1.057-3.197-1.69-4.755c-0.66-1.533-1.374-3.066-2.167-4.546c-0.792-1.48-1.665-2.932-2.589-4.332
					c-0.925-1.401-1.929-2.775-2.986-4.069c-1.083-1.321-2.219-2.589-3.408-3.779c-1.19-1.19-2.458-2.325-3.779-3.382
					c-1.294-1.084-2.642-2.087-4.068-3.012c-1.374-0.925-2.854-1.797-4.334-2.589c-1.48-0.794-3.012-1.507-4.545-2.141
					c-1.558-0.66-3.144-1.215-4.756-1.717c-1.611-0.476-3.25-0.9-4.889-1.215c-1.638-0.344-3.328-0.608-4.994-0.767
					c-3.356-0.344-6.79-0.344-10.146,0c-1.665,0.159-3.356,0.422-4.994,0.767c-1.637,0.316-3.276,0.739-4.889,1.215
					c-1.611,0.502-3.197,1.057-4.755,1.717c-1.533,0.634-3.091,1.347-4.544,2.141c-1.507,0.792-2.96,1.664-4.361,2.589
					c-1.4,0.925-2.748,1.929-4.069,3.012c-1.294,1.057-2.562,2.192-3.752,3.382c-1.188,1.19-2.325,2.458-3.409,3.779
					c-1.057,1.294-2.061,2.668-2.985,4.069c-0.925,1.4-1.797,2.852-2.589,4.332c-0.792,1.48-1.506,3.013-2.166,4.546
					c-0.635,1.558-1.215,3.17-1.691,4.755c-0.502,1.612-0.898,3.25-1.243,4.889c-0.316,1.665-0.581,3.329-0.739,5.02
					c-0.184,1.664-0.264,3.383-0.264,5.047c0,1.691,0.08,3.408,0.264,5.073c0.159,1.664,0.423,3.355,0.739,4.994
					c0.344,1.638,0.74,3.303,1.243,4.914c0.476,1.586,1.057,3.197,1.691,4.73c0.66,1.558,1.374,3.091,2.166,4.571
					c0.792,1.48,1.664,2.932,2.589,4.334c0.32,0.484,0.695,0.933,1.033,1.409c-18.257,3.994-33.698,17.772-38.817,37.062
					c-5.047,18.918,1.109,38.154,14.374,50.705c-16.594,7.133-28.906,22.802-30.915,42.037
					c-1.955,18.866,6.527,36.411,20.768,46.874c-15.087,8.825-25.339,25.127-25.551,43.915
					c-0.223,18.458,9.314,34.712,23.785,43.983c-0.019,0.012-0.038,0.024-0.058,0.036c-1.4,0.952-2.774,1.956-4.07,3.012
					c-1.294,1.057-2.562,2.219-3.751,3.409c-1.189,1.19-2.325,2.458-3.409,3.752c-1.057,1.295-2.061,2.669-3.011,4.069
					c-0.925,1.4-1.797,2.854-2.563,4.334c-0.792,1.48-1.533,3.011-2.166,4.571c-0.635,1.533-1.215,3.144-1.691,4.729
					c-0.502,1.612-0.925,3.276-1.242,4.914c-0.344,1.638-0.581,3.329-0.765,4.994c-0.159,1.69-0.239,3.382-0.239,5.073
					c0,1.664,0.08,3.382,0.239,5.047c0.184,1.69,0.422,3.355,0.765,5.02c0.317,1.638,0.74,3.276,1.242,4.888
					c0.476,1.612,1.056,3.197,1.691,4.756c0.633,1.533,1.374,3.065,2.166,4.545c0.766,1.479,1.638,2.933,2.563,4.333
					c0.951,1.401,1.955,2.775,3.011,4.069c1.084,1.321,2.22,2.589,3.409,3.779c1.189,1.188,2.457,2.325,3.751,3.382
					c1.295,1.083,2.669,2.087,4.07,3.012c1.401,0.925,2.854,1.797,4.333,2.589c1.48,0.792,3.012,1.505,4.571,2.14
					c1.533,0.661,3.144,1.215,4.757,1.718c1.584,0.476,3.25,0.898,4.887,1.215c1.638,0.343,3.33,0.607,4.994,0.766
					c1.691,0.159,3.381,0.265,5.073,0.265c1.664,0,3.383-0.106,5.073-0.265c1.666-0.159,3.33-0.423,4.994-0.766
					c1.638-0.317,3.277-0.739,4.889-1.215c1.586-0.502,3.197-1.057,4.756-1.718c1.533-0.635,3.065-1.348,4.545-2.14
					c1.48-0.792,2.933-1.665,4.333-2.589c1.4-0.925,2.774-1.929,4.068-3.012c1.321-1.057,2.591-2.193,3.779-3.382
					c1.189-1.19,2.324-2.458,3.383-3.779c1.057-1.294,2.086-2.668,3.012-4.069c0.925-1.4,1.797-2.854,2.589-4.333
					c0.793-1.48,1.507-3.012,2.14-4.545c0.661-1.558,1.215-3.144,1.717-4.756c0.476-1.613,0.899-3.25,1.242-4.888
					c0.318-1.665,0.582-3.33,0.739-5.02c0.159-1.666,0.264-3.383,0.264-5.047c0-1.691-0.106-3.383-0.264-5.073
					c-0.157-1.666-0.422-3.356-0.739-4.994c-0.343-1.638-0.766-3.303-1.242-4.914c-0.502-1.586-1.057-3.197-1.717-4.729
					c-0.633-1.56-1.347-3.092-2.14-4.571c-0.792-1.48-1.665-2.934-2.589-4.334c-0.925-1.4-1.955-2.774-3.012-4.069
					c-1.058-1.294-2.194-2.562-3.383-3.752c-1.188-1.19-2.458-2.352-3.779-3.409c-1.294-1.057-2.668-2.061-4.068-3.012
					c-0.277-0.183-0.565-0.352-0.846-0.531c13.652-9.115,22.721-24.586,22.935-42.247c0.212-17.28-8.113-32.685-21.06-42.196
					c13.713-7.98,23.569-22.196,25.313-39.212c1.717-16.567-4.624-32.129-15.854-42.751c14.03-6.025,25.234-18.206,29.461-34.112
					c4.122-15.488,0.734-31.201-7.922-43.283c1.319-0.288,2.635-0.624,3.932-1.028c1.612-0.476,3.197-1.057,4.756-1.691
					c1.533-0.634,3.065-1.374,4.545-2.166c1.48-0.767,2.96-1.639,4.334-2.564c1.426-0.951,2.774-1.955,4.068-3.011
					c1.321-1.057,2.589-2.221,3.779-3.409c1.19-1.19,2.325-2.458,3.408-3.752c1.057-1.295,2.061-2.669,2.986-4.069
					c0.925-1.401,1.797-2.854,2.589-4.334c0.793-1.48,1.507-3.013,2.167-4.571c0.634-1.533,1.215-3.144,1.69-4.73
					c0.502-1.611,0.899-3.275,1.243-4.914c0.317-1.639,0.58-3.33,0.739-4.994c0.186-1.665,0.264-3.382,0.264-5.073
					C353.232,937.203,353.154,935.484,352.968,933.819z"/>
				<path style="fill:#9B8DFF;" d="M344.904,809.017c-29.61-5.256-59.517,8.09-84.06,25.469
					c-38.065,26.954-68.523,64.533-87.012,107.353c62.508,51.753,146.644,88.11,227.604,82.534
					C399.661,955.332,386.097,864.453,344.904,809.017z"/>
				<path style="fill:#5C40FF;" d="M450.023,1030.039c23.849,69.905,31.197,145.381,21.278,218.573h162.45
					c-21.775-64.864-17.432-141.333,5.064-205.951c-13.014-30.406-47.619-47.077-80.509-50.561
					C521.023,988.153,482.468,1011.255,450.023,1030.039z"/>
				<path style="fill:#FFFFFF;" d="M743.936,799.723c-10.322-9.224-21.887-17.233-33.886-23.811
					c-97.344-53.368-237.847-53.737-334.125,2.406c-36.004,20.995-67.705,55.624-69.592,96.849
					c-1.402,30.629,14.023,60.084,35.071,82.637c25.338,27.151,60.873,49.638,67.79,85.911c2.867,15.037,0.203,30.51,0.469,45.809
					c0.267,15.299,4.413,31.983,16.987,40.938c17.622,12.551,43.161,3.907,59.227-10.535c16.577-14.901,32.758-52.11,58.694-49.655
					c20.231,1.915,35.996,28.625,47.163,42.741c15.772,19.939,41.115,39.869,64.527,29.569c16.727-7.358,23.717-27.29,24.726-45.334
					c1.01-18.044-2.087-36.494,2.388-54.018c8.604-33.697,41.764-54.307,65.8-79.705c22.442-23.715,38.294-55.288,36.13-87.664
					C783.318,846.163,766.632,820.005,743.936,799.723z"/>
				
					<ellipse transform="matrix(0.0335 -0.9994 0.9994 0.0335 189.8402 875.3302)" style="fill:#9B8DFF;" cx="547.502" cy="339.51" rx="99.254" ry="99.254"/>
				<path style="fill:#FFFFFF;" d="M489.052,304.085c13.467-1.607,27.101-6.46,38.715-13.408
					c18.976-11.35,29.729-28.833,32.051-49.633c-4.038-0.5-8.143-0.788-12.316-0.788c-40.955,0-76.108,24.81-91.272,60.216
					C466.732,303.415,477.086,305.513,489.052,304.085z"/>
				<path style="fill:#5C40FF;" d="M614.053,461.531c-0.691,0-1.387-0.206-1.993-0.635c-1.558-1.103-1.927-3.259-0.824-4.817
					l118.226-167.042c1.102-1.559,3.261-1.926,4.817-0.825c1.558,1.103,1.928,3.259,0.824,4.817L616.876,460.071
					C616.204,461.023,615.136,461.531,614.053,461.531z"/>
				<path style="fill:#9B8DFF;" d="M709.125,292.755c0,14.311,11.601,25.912,25.912,25.912c14.311,0,25.912-11.601,25.912-25.912
					c0-14.311-11.601-25.912-25.912-25.912C720.726,266.843,709.125,278.444,709.125,292.755z"/>
				<path style="fill:#5C40FF;" d="M457.052,449.436c-1.083,0-2.15-0.508-2.824-1.46L336.003,280.934
					c-1.102-1.558-0.734-3.714,0.825-4.817c1.557-1.102,3.714-0.733,4.817,0.825L459.87,443.983
					c1.102,1.558,0.733,3.714-0.825,4.817C458.439,449.229,457.742,449.436,457.052,449.436z"/>
				<path style="fill:#5C40FF;" d="M408.389,490.227h42.028c3.824,0,6.953-3.129,6.953-6.953v-83.662
					c0-3.824-3.129-6.953-6.953-6.953h-42.029c-3.824,0-6.953,3.129-6.953,6.953v83.663
					C401.436,487.099,404.565,490.227,408.389,490.227z"/>
				<path style="fill:#9B8DFF;" d="M402.394,397.089c-0.592,1.13-0.958,2.394-0.958,3.751v81.206c0,4.499,3.681,8.181,8.181,8.181
					h39.571c4.5,0,8.182-3.682,8.182-8.182v-18.642C427.41,453.645,407.333,428.057,402.394,397.089z"/>
				<path style="fill:#FFFFFF;" d="M741.757,790.756c-9.291-11.887-19.641-22.896-30.881-32.922c-0.257-0.23-0.515-0.461-0.773-0.69
					c-1.227-1.085-2.464-2.159-3.711-3.22c-0.258-0.22-0.518-0.436-0.777-0.655c-5.457-4.604-11.112-8.977-16.951-13.107
					c-0.308-0.218-0.613-0.438-0.921-0.654c-1.265-0.887-2.541-1.759-3.823-2.622c-0.431-0.29-0.862-0.578-1.295-0.866
					c-1.265-0.84-2.535-1.672-3.815-2.49c-0.397-0.253-0.797-0.5-1.195-0.751c-4.224-2.664-8.531-5.204-12.919-7.616
					c-0.422-0.232-0.84-0.47-1.264-0.699c-1.214-0.658-2.437-1.299-3.664-1.937c-0.661-0.344-1.321-0.688-1.985-1.027
					c-1.172-0.596-2.347-1.184-3.529-1.763c-0.725-0.355-1.453-0.703-2.182-1.052c-1.167-0.557-2.335-1.113-3.512-1.654
					c-0.741-0.34-1.488-0.667-2.233-0.999c-2.168-0.969-4.351-1.907-6.55-2.815c-0.783-0.323-1.56-0.656-2.347-0.971
					c-1.063-0.426-2.138-0.833-3.209-1.245c-0.951-0.366-1.902-0.734-2.859-1.089c-1.045-0.388-2.097-0.763-3.149-1.138
					c-1.009-0.359-2.021-0.712-3.035-1.058c-1.021-0.348-2.044-0.693-3.071-1.029c-1.105-0.361-2.216-0.707-3.328-1.053
					c-0.952-0.296-1.901-0.598-2.858-0.883c-1.651-0.492-3.311-0.961-4.976-1.419c-0.976-0.268-1.956-0.526-2.938-0.783
					c-1.473-0.386-2.948-0.767-4.431-1.126c-0.881-0.213-1.768-0.413-2.652-0.617c-1.285-0.296-2.572-0.587-3.865-0.863
					c-0.906-0.194-1.814-0.382-2.724-0.565c-1.324-0.268-2.653-0.523-3.985-0.77c-0.858-0.159-1.714-0.32-2.574-0.47
					c-1.57-0.274-3.148-0.526-4.729-0.771c-0.621-0.096-1.237-0.202-1.859-0.293c-2.178-0.32-4.365-0.61-6.56-0.873
					c-0.629-0.075-1.262-0.135-1.893-0.206c-1.616-0.181-3.236-0.352-4.862-0.502c-0.814-0.075-1.63-0.141-2.446-0.208
					c-1.477-0.121-2.957-0.232-4.441-0.327c-0.835-0.053-1.67-0.106-2.507-0.151c-1.557-0.085-3.12-0.151-4.685-0.207
					c-0.733-0.026-1.464-0.06-2.199-0.079c-2.287-0.062-4.578-0.101-6.88-0.101c-2.284,0-4.559,0.038-6.828,0.099
					c-0.735,0.02-1.466,0.054-2.2,0.081c-1.543,0.055-3.085,0.118-4.621,0.202c-0.846,0.046-1.688,0.1-2.531,0.154
					c-1.436,0.092-2.869,0.196-4.297,0.313c-0.855,0.07-1.709,0.141-2.562,0.219c-1.463,0.135-2.921,0.286-4.376,0.446
					c-0.782,0.086-1.567,0.165-2.347,0.259c-1.815,0.216-3.623,0.456-5.425,0.712c-0.399,0.057-0.801,0.103-1.199,0.161
					c-2.163,0.317-4.315,0.666-6.46,1.038c-0.756,0.132-1.507,0.279-2.261,0.417c-1.412,0.258-2.821,0.522-4.225,0.805
					c-0.892,0.179-1.779,0.369-2.667,0.557c-1.265,0.269-2.526,0.546-3.784,0.834c-0.922,0.212-1.843,0.426-2.762,0.647
					c-1.237,0.299-2.469,0.611-3.699,0.927c-0.898,0.231-1.798,0.459-2.692,0.699c-1.338,0.361-2.667,0.741-3.997,1.123
					c-0.766,0.221-1.536,0.429-2.299,0.656c-1.974,0.588-3.938,1.203-5.891,1.838c-0.901,0.293-1.793,0.605-2.69,0.909
					c-1.137,0.385-2.274,0.768-3.404,1.169c-0.993,0.352-1.98,0.717-2.968,1.081c-1.018,0.376-2.034,0.755-3.045,1.143
					c-1.023,0.393-2.042,0.791-3.058,1.196c-0.96,0.383-1.917,0.776-2.871,1.171c-1.037,0.428-2.073,0.857-3.102,1.299
					c-0.91,0.391-1.813,0.796-2.717,1.197c-1.052,0.467-2.106,0.926-3.15,1.407c-0.476,0.219-0.944,0.451-1.418,0.673
					c-2.425,1.135-4.826,2.31-7.208,3.52c-0.742,0.377-1.488,0.749-2.226,1.133c-1.121,0.583-2.231,1.182-3.341,1.782
					c-0.731,0.395-1.463,0.789-2.189,1.191c-1.118,0.619-2.229,1.246-3.337,1.88c-0.689,0.395-1.375,0.796-2.061,1.197
					c-1.133,0.665-2.264,1.332-3.386,2.013c-0.589,0.358-1.171,0.724-1.757,1.086c-4.191,2.592-8.3,5.303-12.323,8.131
					c-0.317,0.223-0.638,0.44-0.954,0.665c-1.189,0.844-2.364,1.706-3.538,2.57c-0.495,0.365-0.993,0.728-1.486,1.097
					c-1.137,0.85-2.263,1.711-3.385,2.58c-0.496,0.383-0.99,0.77-1.482,1.158c-1.136,0.893-2.267,1.793-3.387,2.705
					c-0.402,0.328-0.799,0.661-1.2,0.991c-13.286,10.962-25.444,23.25-36.237,36.688c-0.74,0.962-1.481,1.925-2.221,2.888
					c-15.65,20.067-28.263,42.575-37.29,66.823h469.168C770.246,833.532,757.524,810.904,741.757,790.756z"/>
				<path style="fill:#9B8DFF;" d="M645.728,491.67h42.028c3.825,0,6.954-3.129,6.954-6.954v-83.661
					c0-3.824-3.129-6.953-6.953-6.953h-42.028c-3.824,0-6.953,3.129-6.953,6.953v83.663
					C638.775,488.542,641.904,491.67,645.728,491.67z"/>
				<path style="fill:#5C40FF;" d="M687.425,394.193c-0.299-0.033-0.59-0.091-0.897-0.091h-39.572c-4.499,0-8.181,3.681-8.181,8.181
					v59.691C666.258,447.554,689,427.047,687.425,394.193z"/>
				
					<rect x="500.767" y="521.488" transform="matrix(-1 -1.224647e-16 1.224647e-16 -1 1098.8706 1244.632)" style="fill:#5C40FF;" width="97.336" height="201.656"/>
				
					<rect x="500.767" y="521.488" transform="matrix(-1 -1.224647e-16 1.224647e-16 -1 1053.202 1244.632)" style="fill:#5C40FF;" width="51.667" height="201.656"/>
				<path style="fill:#FFFFFF;" d="M453.403,388.371v117.143c0,53.473,43.75,97.223,97.223,97.223h0.002
					c53.472,0,97.222-43.749,97.222-97.223V388.371H453.403z"/>
				<path style="fill:#9B8DFF;" d="M550.5,589.681c-13.326,0-26.688-3.693-33.283-12.621c-7.341-9.947-7.829-29.634-8.222-45.454
					c-0.137-5.499-0.265-10.694-0.665-14.81c-2.305-23.7-12.74-32.962-30.028-48.306l-0.116-0.103
					c-20.424-18.127-19.021-35.308-17.245-57.059c0.577-7.066,1.174-14.372,1.174-22.584l0.096-1.526h180.077l0.082,1.466
					c0.002,9.691,1.117,18.163,2.101,25.638c2.604,19.78,4.486,34.071-14.858,51.24c-2.568,2.279-5.149,4.476-7.646,6.601
					c-14.784,12.581-27.552,23.447-29.515,43.67c-0.436,4.481-0.224,10.501,0.002,16.875c0.646,18.304,1.449,41.084-11.784,49.631
					C573.61,586.898,562.068,589.681,550.5,589.681z M464.415,389.522c-0.033,7.972-0.641,15.409-1.178,21.994
					c-1.791,21.936-3.086,37.785,16.478,55.148l0.116,0.102c17.71,15.719,28.399,25.206,30.792,49.806
					c0.407,4.199,0.538,9.434,0.675,14.976c0.384,15.496,0.863,34.781,7.772,44.143c11.266,15.251,45.867,14.065,60.349,4.711
					c12.134-7.836,11.356-29.892,10.731-47.614c-0.227-6.452-0.443-12.546,0.008-17.179c2.053-21.15,15.782-32.833,30.315-45.202
					c2.488-2.117,5.061-4.307,7.61-6.569c18.43-16.357,16.615-30.14,14.103-49.216c-0.967-7.344-2.059-15.642-2.116-25.101H464.415z
					"/>
				<path style="fill:#010028;" d="M551.672,519.107c-0.551,0-1.102-0.188-1.549-0.573l-16.668-14.287
					c-0.998-0.855-1.114-2.358-0.257-3.357c0.852-0.995,2.352-1.116,3.356-0.257l14.992,12.851l13.918-13.919
					c0.928-0.931,2.439-0.931,3.367,0c0.93,0.93,0.93,2.437,0,3.367l-15.476,15.478
					C552.894,518.874,552.284,519.107,551.672,519.107z"/>
				<path style="fill:#FFFFFF;" d="M635.492,445.979H457.049c-15.206,0-27.646-12.441-27.646-27.646v-60.178
					c0-15.206,12.44-27.646,27.646-27.646h178.443c15.205,0,27.646,12.44,27.646,27.646v60.178
					C663.139,433.539,650.698,445.979,635.492,445.979z"/>
				<path style="fill:#FFFFFF;" d="M635.493,457.498H457.049c-21.595,0-39.165-17.569-39.165-39.165v-60.178
					c0-21.595,17.569-39.165,39.165-39.165h178.443c21.596,0,39.166,17.569,39.166,39.165v60.178
					C674.658,439.929,657.088,457.498,635.493,457.498z M457.049,342.029c-8.892,0-16.127,7.234-16.127,16.127v60.178
					c0,8.892,7.234,16.127,16.127,16.127h178.443c8.893,0,16.127-7.234,16.127-16.127v-60.178c0-8.892-7.234-16.127-16.127-16.127
					H457.049z"/>
				<path style="fill:#010028;" d="M635.492,445.979H457.049c-15.206,0-27.646-12.441-27.646-27.646v-60.178
					c0-15.206,12.44-27.646,27.646-27.646h178.443c15.205,0,27.646,12.44,27.646,27.646v60.178
					C663.139,433.539,650.698,445.979,635.492,445.979z"/>
				<path style="fill:#9B8DFF;" d="M361.981,280.66c0,14.31-11.601,25.912-25.912,25.912s-25.912-11.601-25.912-25.912
					c0-14.311,11.601-25.912,25.912-25.912S361.981,266.349,361.981,280.66z"/>
				<path style="fill:#9B8DFF;" d="M602.511,746.234H497.046c-6.349,0-11.545-5.195-11.545-11.545l0,0
					c0-6.35,5.195-11.545,11.545-11.545h105.465c6.35,0,11.545,5.195,11.545,11.545l0,0
					C614.056,741.039,608.861,746.234,602.511,746.234z"/>
				
					<linearGradient id="SVGID_00000156589959354987399210000009866586663464117408_" gradientUnits="userSpaceOnUse" x1="457.3706" y1="388.1323" x2="626.8033" y2="388.1323">
					<stop  offset="0.5199" style="stop-color:#71FFC8"/>
					<stop  offset="1" style="stop-color:#71FFC8"/>
				</linearGradient>
				<path style="fill:url(#SVGID_00000156589959354987399210000009866586663464117408_);" d="M622.277,392.658H461.897
					c-2.489,0-4.526-2.037-4.526-4.526l0,0c0-2.489,2.037-4.526,4.526-4.526h160.381c2.489,0,4.526,2.037,4.526,4.526l0,0
					C626.803,390.622,624.766,392.658,622.277,392.658z"/>
				
					<linearGradient id="SVGID_00000038373826603243171820000015945929504560240530_" gradientUnits="userSpaceOnUse" x1="482.429" y1="365.2859" x2="500.7675" y2="365.2859">
					<stop  offset="0.5199" style="stop-color:#71FFC8"/>
					<stop  offset="1" style="stop-color:#71FFC8"/>
				</linearGradient>
				<path style="fill:url(#SVGID_00000038373826603243171820000015945929504560240530_);" d="M491.598,374.455L491.598,374.455
					c-5.043,0-9.169-4.126-9.169-9.169l0,0c0-5.043,4.126-9.169,9.169-9.169l0,0c5.043,0,9.169,4.126,9.169,9.169l0,0
					C500.767,370.329,496.642,374.455,491.598,374.455z"/>
				
					<linearGradient id="SVGID_00000042007664648345987860000009831558154436396424_" gradientUnits="userSpaceOnUse" x1="3968.7456" y1="1597.5502" x2="3981.697" y2="1597.5502" gradientTransform="matrix(0.7071 -0.7071 0.7071 0.7071 -3474.2881 2046.5374)">
					<stop  offset="0.5199" style="stop-color:#71FFC8"/>
					<stop  offset="1" style="stop-color:#71FFC8"/>
				</linearGradient>
				<path style="fill:url(#SVGID_00000042007664648345987860000009831558154436396424_);" d="M470.798,369.865L470.798,369.865
					c-2.518,2.518-6.639,2.518-9.158,0l0,0c-2.519-2.519-2.519-6.64,0-9.158l0,0c2.518-2.518,6.639-2.518,9.158,0l0,0
					C473.316,363.225,473.316,367.346,470.798,369.865z"/>
				<path style="fill:#9B8DFF;" d="M571.065,536.584H534.28c-1.689,0-3.071-1.382-3.071-3.072l0,0c0-1.69,1.382-3.072,3.071-3.072
					h36.785c1.689,0,3.072,1.382,3.072,3.072l0,0C574.137,535.202,572.754,536.584,571.065,536.584z"/>
				<path style="fill:#010028;" d="M549.687,645.15c-7.491,0-14.222-1.022-19.901-2.406c-17.832-4.346-29.45-13.125-29.565-13.213
					c-0.395-0.303-0.47-0.867-0.168-1.262c0.3-0.394,0.866-0.47,1.261-0.168c0.113,0.086,11.483,8.666,28.969,12.912
					c16.098,3.907,40.843,4.836,67.318-12.944c0.414-0.277,0.972-0.165,1.249,0.245c0.277,0.413,0.167,0.972-0.245,1.249
					C580.886,641.462,563.915,645.15,549.687,645.15z"/>
				<path style="fill:#010028;" d="M550.878,672.225c-7.491,0-14.221-1.022-19.901-2.406c-17.832-4.346-29.449-13.126-29.564-13.213
					c-0.395-0.303-0.47-0.867-0.168-1.262c0.301-0.394,0.866-0.47,1.262-0.168c0.113,0.086,11.483,8.666,28.97,12.912
					c16.096,3.908,40.842,4.836,67.317-12.944c0.414-0.278,0.973-0.166,1.249,0.245c0.277,0.413,0.167,0.972-0.245,1.249
					C582.077,668.537,565.106,672.225,550.878,672.225z"/>
				<path style="fill:#9B8DFF;" d="M516.257,470.371c-0.918,1.738-1.487,3.685-1.487,5.776c0,6.883,5.631,12.515,12.515,12.515
					h43.32c6.884,0,12.515-5.632,12.515-12.515c0-2.091-0.569-4.038-1.486-5.776H516.257z"/>
				<path style="fill:#9B8DFF;" d="M548.945,485.881L548.945,485.881c-9.001,0-16.366-7.365-16.366-16.367v-34.656
					c0-9,7.365-16.366,16.366-16.366l0,0c9.001,0,16.366,7.365,16.366,16.366v34.656
					C565.311,478.515,557.946,485.881,548.945,485.881z"/>
				<path style="fill:#010028;" d="M559.632,1018.163c-20.808,0-41.938-4.738-61.873-14.494
					c-39.379-21.584-60.168-61.931-78.093-101.41c-25.354-52.115-54.646-78.934-89.526-81.941c-1.121-0.097-1.953-1.109-1.859-2.26
					c0.094-1.151,1.09-2.002,2.199-1.911c36.414,3.139,66.786,30.711,92.852,84.291c17.658,38.89,38.07,78.561,76.26,99.495
					c53.93,26.396,117.008,14.915,156.9-28.599c24.948-31.355,40.538-62.734,53.668-91.974c0.025-0.055,0.052-0.109,0.081-0.162
					c7.757-13.954,28.62-47.16,54.737-54.112c1.085-0.287,2.199,0.382,2.482,1.502c0.282,1.118-0.372,2.26-1.461,2.551
					c-25.242,6.72-46.264,41.435-52.178,52.057c-13.243,29.486-28.981,61.137-54.222,92.844c-0.029,0.038-0.06,0.074-0.092,0.109
					C633.128,1002.955,596.904,1018.163,559.632,1018.163z"/>
				<ellipse style="fill:#010028;" cx="551.077" cy="956.743" rx="53.848" ry="89.274"/>
				<path style="fill:#010028;" d="M610.473,1204.446c-9.594,0-19.748-2.422-29.503-7.127
					c-10.664-5.144-20.856-12.692-33.045-24.474c-1.207-1.167-2.408-2.348-3.609-3.53c-6.488-6.381-13.197-12.98-21.116-17.358
					c-14.758-8.16-32.538-8.281-49.483-7.7c-0.024,0-0.049,0.001-0.073,0.001c-1.123,0-2.052-0.891-2.09-2.022
					c-0.039-1.155,0.865-2.124,2.02-2.163c17.534-0.595,35.96-0.454,51.651,8.221c8.421,4.655,15.337,11.458,22.026,18.037
					c1.193,1.174,2.384,2.346,3.583,3.505c11.853,11.459,21.708,18.772,31.953,23.713c12.864,6.204,26.395,8.193,38.099,5.609
					c1.132-0.248,2.247,0.463,2.495,1.591c0.25,1.129-0.463,2.246-1.591,2.495C618.154,1204.048,614.359,1204.445,610.473,1204.446z
					"/>
				<path style="fill:#010028;" d="M590.527,1215.94c-38.553,0-80.605-3.665-115.874-23.672c-1.006-0.571-1.358-1.848-0.788-2.853
					c0.57-1.005,1.847-1.358,2.853-0.788c45.003,25.529,101.936,23.829,147.685,22.466c1.133-0.071,2.119,0.875,2.154,2.03
					c0.035,1.155-0.874,2.119-2.03,2.154C613.717,1215.599,602.281,1215.94,590.527,1215.94z"/>
				<path style="fill:#010028;" d="M620.427,1160.13c-0.019,0-0.038,0-0.056-0.001c-32.687-0.87-64.527-21.076-79.231-50.28
					c-6.33-12.569-8.555-24.901-6.435-35.661c0.223-1.135,1.322-1.869,2.458-1.649c1.134,0.224,1.872,1.324,1.649,2.458
					c-2.449,12.43,1.947,24.791,6.067,32.97c14.031,27.867,44.413,47.148,75.603,47.978c1.156,0.031,2.068,0.993,2.037,2.148
					C622.488,1159.229,621.557,1160.13,620.427,1160.13z"/>
				<path style="fill:#010028;" d="M266.02,946.326c-5.277,0-10.534-0.395-15.689-1.2c-26.21-4.097-46.732-13.735-60.994-28.647
					c-0.761-0.795-0.733-2.057,0.063-2.818c0.796-0.761,2.059-0.733,2.819,0.063c13.644,14.264,33.403,23.504,58.728,27.463
					c22.652,3.539,47.39-1.165,66.172-12.588c0.941-0.572,2.168-0.273,2.74,0.668c0.572,0.941,0.273,2.167-0.667,2.74
					C303.91,941.299,284.854,946.326,266.02,946.326z"/>
				<path style="fill:#010028;" d="M820.089,946.424c-16.971,0-33.898-3.945-48.72-11.997c-0.967-0.525-1.326-1.736-0.8-2.704
					c0.525-0.967,1.735-1.328,2.704-0.8c33.166,18.015,77.319,14.651,107.374-8.179c7.551-5.736,12.217-11.187,14.685-17.157
					c0.422-1.017,1.587-1.499,2.605-1.081c1.017,0.421,1.501,1.587,1.081,2.605c-2.75,6.65-7.821,12.627-15.959,18.807
					C865.228,939.465,842.621,946.424,820.089,946.424z"/>
				<path style="fill:#010028;" d="M233.517,903.36c-1.141,0-2.257-0.222-3.317-0.688c-5.819-2.559-7.395-11.348-3.587-20.009
					c3.807-8.661,11.35-13.441,17.168-10.883c5.82,2.559,7.395,11.348,3.587,20.009C244.255,898.872,238.642,903.36,233.517,903.36z
					 M240.45,875.08c-3.479,0-7.792,3.743-10.186,9.189c-2.811,6.394-2.105,13.15,1.541,14.753
					c3.648,1.602,9.103-2.445,11.914-8.838c2.811-6.394,2.105-13.15-1.542-14.753C241.636,875.192,241.055,875.08,240.45,875.08z"/>
				
					<linearGradient id="SVGID_00000169526958223522300230000003307181018413292190_" gradientUnits="userSpaceOnUse" x1="536.0104" y1="909.0156" x2="565.7025" y2="909.0156">
					<stop  offset="0.5199" style="stop-color:#71FFC8"/>
					<stop  offset="1" style="stop-color:#71FFC8"/>
				</linearGradient>
				<path style="fill:url(#SVGID_00000169526958223522300230000003307181018413292190_);" d="M565.703,909.015
					c0,8.199-6.647,14.846-14.846,14.846c-8.199,0-14.846-6.647-14.846-14.846c0-8.199,6.647-14.846,14.846-14.846
					C559.055,894.17,565.703,900.816,565.703,909.015z"/>
				
					<linearGradient id="SVGID_00000075153567442764573640000000933679913283748480_" gradientUnits="userSpaceOnUse" x1="526.601" y1="966.1859" x2="577.5411" y2="966.1859">
					<stop  offset="0.5199" style="stop-color:#71FFC8"/>
					<stop  offset="1" style="stop-color:#71FFC8"/>
				</linearGradient>
				<path style="fill:url(#SVGID_00000075153567442764573640000000933679913283748480_);" d="M577.541,966.186
					c0,14.067-11.403,25.471-25.47,25.471c-14.067,0-25.47-11.404-25.47-25.471c0-14.066,11.403-25.47,25.47-25.47
					C566.138,940.716,577.541,952.119,577.541,966.186z"/>
			</g>
		</g>
	</g>
</g>
</svg>
